<svg width="120" height="21" viewBox="0 0 120 21" fill="none" xmlns="http://www.w3.org/2000/svg">
<path fill-rule="evenodd" clip-rule="evenodd" d="M4.53971 18.6667C4.53971 19.1695 4.53971 19.4209 4.3835 19.5771C4.22729 19.7333 3.97587 19.7333 3.47304 19.7333H1.79197C1.28914 19.7333 1.03773 19.7333 0.881519 19.5771C0.725306 19.4209 0.725306 19.1695 0.725306 18.6667V7.3344C0.725306 6.83158 0.725306 6.58016 0.881519 6.42395C1.03773 6.26774 1.28915 6.26774 1.79197 6.26774H3.47304C3.97587 6.26774 4.22729 6.26774 4.3835 6.42395C4.53971 6.58016 4.53971 6.83158 4.53971 7.3344V18.6667ZM4.89811 2.37653C4.89811 3.07626 4.66771 3.63093 4.20691 4.04053C3.76317 4.43306 3.23411 4.62933 2.61971 4.62933C2.00531 4.62933 1.46771 4.43306 1.00691 4.04053C0.563173 3.63093 0.341309 3.07626 0.341309 2.37653C0.341309 1.6768 0.563173 1.13066 1.00691 0.738131C1.46771 0.328533 2.00531 0.123734 2.61971 0.123734C3.23411 0.123734 3.76317 0.328533 4.20691 0.738131C4.66771 1.13066 4.89811 1.6768 4.89811 2.37653ZM7.9973 3.82275C7.9973 3.38897 7.9973 3.17209 8.12466 3.0226C8.25197 2.87313 8.4661 2.83864 8.89437 2.76966L10.5754 2.49888C11.1496 2.40639 11.4367 2.36014 11.6242 2.51985C11.8117 2.67956 11.8117 2.97036 11.8117 3.55197V5.20108C11.8117 5.70391 11.8117 5.95532 11.9679 6.11153C12.1241 6.26775 12.3755 6.26775 12.8784 6.26775H15.3274C15.8303 6.26775 16.0817 6.26775 16.2379 6.42396C16.3941 6.58017 16.3941 6.83159 16.3941 7.33441V8.37548C16.3941 8.87831 16.3941 9.12972 16.2379 9.28593C16.0817 9.44215 15.8303 9.44215 15.3274 9.44215H12.8784C12.3755 9.44215 12.1241 9.44215 11.9679 9.59836C11.8117 9.75457 11.8117 10.006 11.8117 10.5088V14.1781C11.8117 14.9803 11.9482 15.6203 12.2213 16.0981C12.5114 16.576 13.0832 16.8149 13.9365 16.8149C14.3461 16.8149 14.7642 16.7808 15.1909 16.7125L15.1915 16.7124C15.7891 16.5975 16.088 16.54 16.2656 16.6509C16.2799 16.6599 16.2896 16.6665 16.3031 16.6767C16.4706 16.8023 16.5193 17.0714 16.6168 17.6097L16.7776 18.4979C16.8526 18.9121 16.89 19.1193 16.7848 19.2922C16.6795 19.4652 16.4919 19.5229 16.1165 19.6385C15.8864 19.7093 15.6461 19.7751 15.3957 19.8357C14.8325 19.9723 14.1413 20.0405 13.3221 20.0405C12.281 20.0405 11.4192 19.904 10.7365 19.6309C10.0538 19.3408 9.5077 18.9483 9.0981 18.4533C8.6885 17.9413 8.39837 17.3269 8.2277 16.6101C8.0741 15.8933 7.9973 15.0997 7.9973 14.2293V3.82275ZM18.8979 9.97974C18.5395 10.8672 18.3603 11.9083 18.3603 13.1029C18.3603 14.0928 18.4968 15.0144 18.7699 15.8677C19.06 16.7211 19.4952 17.4635 20.0755 18.0949C20.6728 18.7093 21.4152 19.1957 22.3027 19.5541C23.2072 19.9125 24.2654 20.0917 25.4771 20.0917C25.955 20.0917 26.4328 20.0661 26.9107 20.0149C27.3886 19.9637 27.8323 19.8955 28.2419 19.8101C28.6686 19.7419 29.0526 19.6565 29.3939 19.5541C29.4228 19.5455 29.4513 19.5368 29.4793 19.5281C29.8054 19.4268 29.9684 19.3762 30.0734 19.2062C30.1783 19.0362 30.1471 18.8477 30.0848 18.4708L29.9252 17.5052C29.8242 16.8939 29.7736 16.5882 29.5822 16.4597C29.3908 16.3313 29.0578 16.4075 28.3918 16.5599C28.2777 16.586 28.1594 16.6113 28.0371 16.6357C27.3715 16.7552 26.6888 16.8149 25.9891 16.8149C24.8968 16.8149 24.0264 16.5845 23.3779 16.1237C23.075 15.9085 22.8335 15.6578 22.6534 15.3719L22.6533 15.3716C22.4159 14.9945 22.2972 14.806 22.4494 14.5305C22.6015 14.2549 22.8897 14.2549 23.466 14.2549H30.2368C30.4252 14.2549 30.5194 14.2549 30.5988 14.2295C30.7492 14.1813 30.8739 14.0647 30.932 13.9178C30.9627 13.8403 30.9688 13.7481 30.9811 13.5637C30.9982 13.2907 31.0067 13.0432 31.0067 12.8213C31.0067 10.5515 30.452 8.83628 29.3427 7.67575C28.2334 6.49815 26.723 5.90935 24.8115 5.90935C23.9923 5.90935 23.1902 6.06295 22.4051 6.37015C21.6371 6.67735 20.9544 7.12961 20.3571 7.72695C19.7598 8.32428 19.2734 9.07521 18.8979 9.97974ZM27.0528 11.5247C26.9059 11.6437 26.7218 11.6437 26.3534 11.6437H23.253C22.9417 11.6437 22.786 11.6437 22.6606 11.5697C22.5438 11.5007 22.4388 11.355 22.4103 11.2224C22.3797 11.08 22.4223 10.9523 22.5074 10.6969L22.5075 10.6965C22.627 10.3723 22.7891 10.0907 22.9939 9.85175C23.1987 9.61281 23.4547 9.42508 23.7619 9.28855C24.0691 9.13495 24.436 9.05814 24.8627 9.05814C25.3064 9.05814 25.6734 9.13495 25.9635 9.28855C26.2707 9.44215 26.5182 9.63841 26.7059 9.87735C26.9107 10.1163 27.0558 10.3893 27.1411 10.6965C27.2355 10.9796 27.2826 11.1211 27.2161 11.2981C27.1875 11.374 27.1159 11.4736 27.0528 11.5247ZM41.3487 12.5909C41.3487 11.3621 41.1866 10.4917 40.8623 9.97975C40.5551 9.46775 40.0175 9.21175 39.2495 9.21175C39.0106 9.21175 38.7631 9.22882 38.5071 9.26295C38.2607 9.27938 38.1375 9.28759 38.0292 9.35079C37.944 9.40055 37.8645 9.48546 37.8205 9.57378C37.7647 9.68604 37.7647 9.81943 37.7647 10.0863V18.6667C37.7647 19.1695 37.7647 19.4209 37.6085 19.5771C37.4523 19.7333 37.2009 19.7333 36.698 19.7333H35.017C34.5141 19.7333 34.2627 19.7333 34.1065 19.5771C33.9503 19.4209 33.9503 19.1695 33.9503 18.6667V7.55084C33.9503 7.1526 33.9503 6.95351 34.069 6.80679C34.1877 6.66008 34.3753 6.62002 34.7505 6.53992L34.7505 6.53991C34.8557 6.51746 34.9644 6.495 35.0767 6.47255C35.5204 6.37015 35.9812 6.28482 36.4591 6.21655C36.954 6.13122 37.4575 6.07148 37.9695 6.03735C38.4815 5.98615 38.985 5.96055 39.4799 5.96055C40.4527 5.96055 41.2378 6.08855 41.8351 6.34455C42.135 6.46119 42.4085 6.58999 42.6555 6.73106C43.0405 6.95084 43.233 7.06071 43.3698 7.06295C43.5066 7.06519 43.6919 6.96737 44.0624 6.77179L44.063 6.77148C44.4204 6.58279 44.8041 6.42338 45.2143 6.29335C45.9311 6.07148 46.5882 5.96055 47.1855 5.96055C48.2607 5.96055 49.1396 6.11415 49.8223 6.42135C50.522 6.71148 51.0767 7.12962 51.4863 7.67575C51.8959 8.22188 52.1775 8.87042 52.3311 9.62135C52.4847 10.3723 52.5615 11.2085 52.5615 12.1301V18.6667C52.5615 19.1695 52.5615 19.4209 52.4053 19.5771C52.2491 19.7333 51.9977 19.7333 51.4948 19.7333H49.8138C49.3109 19.7333 49.0595 19.7333 48.9033 19.5771C48.7471 19.4209 48.7471 19.1695 48.7471 18.6667V12.5909C48.7471 11.3621 48.585 10.4917 48.2607 9.97975C47.9535 9.46775 47.4159 9.21175 46.6479 9.21175C46.4431 9.21175 46.153 9.26295 45.7775 9.36535C45.7213 9.3814 45.6666 9.3981 45.6133 9.41538C45.3154 9.51223 45.1665 9.56066 45.0637 9.72732C44.9609 9.89404 44.9935 10.1079 45.0586 10.5355C45.0819 10.6883 45.0996 10.8444 45.1119 11.0037C45.146 11.4304 45.1631 11.8912 45.1631 12.3862V18.6667C45.1631 19.1695 45.1631 19.4209 45.0069 19.5771C44.8507 19.7333 44.5993 19.7333 44.0964 19.7333H42.4154C41.9125 19.7333 41.6611 19.7333 41.5049 19.5771C41.3487 19.4209 41.3487 19.1695 41.3487 18.6667V12.5909ZM61.376 16.7893C61.0858 16.9259 60.5909 16.9941 59.8912 16.9941C59.2256 16.9941 58.5514 16.9259 57.8688 16.7893C57.6 16.729 57.3344 16.6607 57.0714 16.5845C56.4837 16.4142 56.1898 16.3291 55.9898 16.4495C55.7904 16.5699 55.7317 16.8522 55.6149 17.4169L55.4058 18.431C55.3226 18.8335 55.281 19.0348 55.3872 19.2129C55.4938 19.3911 55.6768 19.4458 56.0426 19.5551C56.28 19.6261 56.5562 19.7026 56.8704 19.7845C57.6725 19.9893 58.6709 20.0917 59.8656 20.0917C61.6917 20.0917 63.0997 19.7504 64.0896 19.0677C65.0965 18.3851 65.6 17.3781 65.6 16.0469C65.6 15.4837 65.5317 14.9888 65.3952 14.5621C65.2757 14.1355 65.0538 13.7515 64.7296 13.4101C64.4224 13.0517 63.9957 12.7275 63.4496 12.4373C62.9034 12.1301 62.2122 11.8229 61.376 11.5157C60.9664 11.3621 60.625 11.2256 60.352 11.1061C60.096 10.9696 59.8912 10.8501 59.7376 10.7477C59.584 10.6283 59.4816 10.5088 59.4304 10.3893C59.3792 10.2699 59.3536 10.1333 59.3536 9.97974C59.3536 9.31415 59.9509 8.98135 61.1456 8.98135C61.7941 8.98135 62.3744 9.04108 62.8864 9.16055C62.9925 9.18455 63.097 9.20919 63.1994 9.23457C63.7632 9.37367 64.0453 9.44321 64.2357 9.32518C64.4263 9.20734 64.4862 8.94058 64.6058 8.40733L64.6064 8.40481L64.8096 7.49889C64.9066 7.06593 64.9552 6.8494 64.8405 6.66444C64.7264 6.47943 64.528 6.43041 64.1306 6.33233C63.8576 6.26476 63.5536 6.20055 63.2192 6.13975C62.4682 5.98615 61.6832 5.90935 60.864 5.90935C59.2256 5.90935 57.937 6.27628 56.9984 7.01015C56.0597 7.74401 55.5904 8.74241 55.5904 10.0053C55.5904 10.6539 55.6842 11.2085 55.872 11.6693C56.0597 12.1301 56.3242 12.5312 56.6656 12.8725C57.0069 13.1968 57.4165 13.4784 57.8944 13.7173C58.3893 13.9563 58.9354 14.1867 59.5328 14.4085C60.3008 14.6987 60.8725 14.9632 61.248 15.2021C61.6234 15.424 61.8112 15.6885 61.8112 15.9957C61.8112 16.3883 61.6661 16.6528 61.376 16.7893ZM67.8101 13.0005C67.8101 12.0277 67.9637 11.1147 68.2709 10.2613C68.5952 9.39095 69.056 8.64001 69.6533 8.00855C70.2506 7.36001 70.976 6.84801 71.8293 6.47255C72.6826 6.09708 73.6554 5.90935 74.7477 5.90935C75.4645 5.90935 76.1216 5.97761 76.7189 6.11415C77.0154 6.1734 77.3072 6.24732 77.5952 6.33596C77.9909 6.45777 78.1888 6.51868 78.2928 6.70567C78.3973 6.89265 78.3408 7.1094 78.2277 7.54294L77.9664 8.54663L77.9657 8.54916C77.8291 9.07264 77.7607 9.33454 77.5733 9.44641C77.3861 9.55841 77.1002 9.48881 76.5296 9.34956L76.4885 9.33974C76.0618 9.23734 75.584 9.18615 75.0549 9.18615C73.9285 9.18615 73.0837 9.53601 72.5205 10.2357C71.9744 10.9355 71.7013 11.8571 71.7013 13.0005C71.7013 14.2123 71.9573 15.1509 72.4693 15.8165C72.9984 16.4821 73.9114 16.8149 75.2085 16.8149C75.6693 16.8149 76.1642 16.7723 76.6933 16.6869C76.7514 16.6776 76.8085 16.6677 76.865 16.6572L76.8653 16.6571C77.5312 16.5335 77.864 16.4717 78.0469 16.5991C78.2298 16.7266 78.2805 17.0186 78.3808 17.6028L78.5466 18.5668L78.547 18.5692C78.6166 18.9739 78.6515 19.1766 78.5429 19.3491C78.4347 19.5219 78.2537 19.5737 77.8929 19.6771L77.8917 19.6774C77.6277 19.7529 77.3392 19.8227 77.0261 19.8869C76.3605 20.0235 75.6266 20.0917 74.8245 20.0917C73.5957 20.0917 72.5376 19.9125 71.6501 19.5541C70.7626 19.1787 70.0288 18.6752 69.4485 18.0437C68.8853 17.4123 68.4672 16.6699 68.1941 15.8165C67.9381 14.9461 67.8101 14.0075 67.8101 13.0005ZM92.7349 15.8933C93.0421 15.0059 93.1957 14.0331 93.1957 12.9749C93.1957 11.9168 93.0336 10.9525 92.7093 10.0821C92.3851 9.21175 91.9328 8.46935 91.3525 7.85495C90.7722 7.24055 90.0725 6.76268 89.2533 6.42135C88.4512 6.08001 87.5637 5.90935 86.5909 5.90935C85.6352 5.90935 84.7477 6.08001 83.9285 6.42135C83.1264 6.76268 82.4267 7.24055 81.8293 7.85495C81.249 8.46935 80.7883 9.21175 80.4469 10.0821C80.1227 10.9525 79.9605 11.9168 79.9605 12.9749C79.9605 14.0331 80.1227 15.0059 80.4469 15.8933C80.7712 16.7637 81.2235 17.5147 81.8037 18.1461C82.384 18.7605 83.0752 19.2384 83.8773 19.5797C84.6965 19.9211 85.6011 20.0917 86.5909 20.0917C87.5979 20.0917 88.5024 19.9211 89.3045 19.5797C90.1237 19.2384 90.8235 18.7605 91.4037 18.1461C91.984 17.5147 92.4277 16.7637 92.7349 15.8933ZM88.5877 10.2101C89.0656 10.8757 89.3045 11.7973 89.3045 12.9749C89.3045 14.1525 89.0656 15.0912 88.5877 15.7909C88.1269 16.4736 87.4613 16.8149 86.5909 16.8149C85.7205 16.8149 85.0464 16.4736 84.5685 15.7909C84.0907 15.0912 83.8517 14.1525 83.8517 12.9749C83.8517 11.7973 84.0907 10.8757 84.5685 10.2101C85.0464 9.52748 85.7205 9.18615 86.5909 9.18615C87.4613 9.18615 88.1269 9.52748 88.5877 10.2101ZM107.645 18.4708C107.645 18.8608 107.645 19.0557 107.527 19.2019C107.411 19.3481 107.23 19.3885 106.868 19.4694C106.367 19.5814 105.79 19.6865 105.136 19.7845C104.112 19.9552 103.037 20.0405 101.91 20.0405C100.767 20.0405 99.8112 19.8869 99.0432 19.5797C98.2922 19.2725 97.6949 18.8459 97.2512 18.2997C96.8074 17.7365 96.4917 17.0709 96.304 16.3029C96.1162 15.5349 96.0224 14.6901 96.0224 13.7685V7.33441C96.0224 6.83158 96.0224 6.58017 96.1786 6.42396C96.3349 6.26774 96.5861 6.26774 97.089 6.26774H98.7701C99.273 6.26774 99.5242 6.26774 99.6805 6.42396C99.8368 6.58017 99.8368 6.83158 99.8368 7.33441V13.3077C99.8368 14.5365 99.9989 15.424 100.323 15.9701C100.647 16.5163 101.253 16.7893 102.141 16.7893C102.414 16.7893 102.704 16.7808 103.011 16.7637C103.345 16.7266 103.512 16.7081 103.634 16.6088C103.676 16.5742 103.715 16.5305 103.745 16.4845C103.83 16.3525 103.83 16.1802 103.83 15.8357V7.33441C103.83 6.83158 103.83 6.58017 103.987 6.42396C104.143 6.26774 104.394 6.26774 104.897 6.26774H106.578C107.081 6.26774 107.332 6.26774 107.488 6.42396C107.645 6.58017 107.645 6.83158 107.645 7.33441V18.4708ZM111.224 3.0226C111.098 3.17209 111.098 3.38897 111.098 3.82275V14.2293C111.098 15.0997 111.174 15.8933 111.328 16.6101C111.499 17.3269 111.789 17.9413 112.198 18.4533C112.608 18.9483 113.154 19.3408 113.837 19.6309C114.519 19.904 115.381 20.0405 116.422 20.0405C117.242 20.0405 117.933 19.9723 118.496 19.8357C118.746 19.7751 118.987 19.7093 119.216 19.6385C119.592 19.5229 119.78 19.4652 119.885 19.2922C119.99 19.1193 119.952 18.9121 119.878 18.4979L119.717 17.6097L119.716 17.6067C119.619 17.0704 119.57 16.8021 119.403 16.6767C119.39 16.6665 119.38 16.6599 119.365 16.6509C119.188 16.5401 118.889 16.5975 118.292 16.7123L118.291 16.7125C117.864 16.7808 117.446 16.8149 117.037 16.8149C116.183 16.8149 115.612 16.576 115.322 16.0981C115.048 15.6203 114.912 14.9803 114.912 14.1781V10.5088V10.5087C114.912 10.006 114.912 9.75457 115.068 9.59836C115.224 9.44215 115.476 9.44215 115.979 9.44215H118.428C118.93 9.44215 119.182 9.44215 119.338 9.28593C119.494 9.12972 119.494 8.87831 119.494 8.37548V7.33441C119.494 6.83159 119.494 6.58017 119.338 6.42396C119.182 6.26775 118.93 6.26775 118.428 6.26775H115.979C115.476 6.26775 115.224 6.26775 115.068 6.11153C114.912 5.95533 114.912 5.70393 114.912 5.20115V5.20108V3.55197C114.912 2.97036 114.912 2.67956 114.724 2.51985C114.537 2.36018 114.25 2.40637 113.676 2.49881L113.675 2.49888L111.994 2.76966C111.566 2.83864 111.352 2.87313 111.224 3.0226Z" fill="#677785"/>
</svg>
